<mxfile host="65bd71144e" modified="2020-10-17T17:27:38.957Z" agent="5.0 (Windows NT 10.0; Win64; x64) AppleWebKit/537.36 (KHTML, like Gecko) Code/1.50.1 Chrome/83.0.4103.122 Electron/9.2.1 Safari/537.36" version="13.6.5" etag="pHJ0BXFJ7M-UyYqOemYU">
    <diagram id="-S-Su0DWUqGaDV18icu3" name="Page-1">
        <mxGraphModel dx="2545" dy="792" grid="1" gridSize="10" guides="1" tooltips="1" connect="1" arrows="1" fold="1" page="1" pageScale="1" pageWidth="850" pageHeight="1100" math="0" shadow="0">
            <root>
                <mxCell id="0"/>
                <mxCell id="1" parent="0"/>
                <mxCell id="QqKcmoJ2T04hJHOFYL-L-1" value="APP NAME&lt;br&gt;&lt;br&gt;&lt;br&gt;&lt;br&gt;&lt;br&gt;&lt;br&gt;&lt;br&gt;&lt;br&gt;&lt;br&gt;&lt;br&gt;&lt;br&gt;&lt;br&gt;&lt;br&gt;&lt;br&gt;" style="rounded=0;whiteSpace=wrap;html=1;" vertex="1" parent="1">
                    <mxGeometry x="80" y="90" width="230" height="390" as="geometry"/>
                </mxCell>
                <mxCell id="kk17gffhvfbufW7QiLIQ-1" value="Customer Main Screen" style="text;html=1;strokeColor=none;fillColor=none;align=center;verticalAlign=middle;whiteSpace=wrap;rounded=0;" vertex="1" parent="1">
                    <mxGeometry x="175" y="50" width="40" height="20" as="geometry"/>
                </mxCell>
                <mxCell id="QqKcmoJ2T04hJHOFYL-L-2" value="Start Order" style="rounded=0;whiteSpace=wrap;html=1;fillColor=#0050ef;strokeColor=#001DBC;fontColor=#ffffff;" vertex="1" parent="1">
                    <mxGeometry x="135" y="310" width="120" height="60" as="geometry"/>
                </mxCell>
                <mxCell id="QqKcmoJ2T04hJHOFYL-L-3" value="Powered by&lt;br&gt;NCR LOGO" style="rounded=0;whiteSpace=wrap;html=1;fillColor=#60a917;strokeColor=#2D7600;fontColor=#ffffff;" vertex="1" parent="1">
                    <mxGeometry x="110" y="210" width="170" height="80" as="geometry"/>
                </mxCell>
                <mxCell id="QqKcmoJ2T04hJHOFYL-L-4" value="Catalog&lt;br&gt;&lt;br&gt;&lt;br&gt;&lt;br&gt;&lt;br&gt;&lt;br&gt;&lt;br&gt;&lt;br&gt;&lt;br&gt;&lt;br&gt;&lt;br&gt;&lt;br&gt;&lt;br&gt;&lt;br&gt;&lt;br&gt;&lt;br&gt;&lt;br&gt;&lt;br&gt;&lt;br&gt;&lt;br&gt;" style="rounded=0;whiteSpace=wrap;html=1;" vertex="1" parent="1">
                    <mxGeometry x="360" y="90" width="230" height="390" as="geometry"/>
                </mxCell>
                <mxCell id="QqKcmoJ2T04hJHOFYL-L-5" value="Menu Screen" style="text;html=1;strokeColor=none;fillColor=none;align=center;verticalAlign=middle;whiteSpace=wrap;rounded=0;" vertex="1" parent="1">
                    <mxGeometry x="455" y="60" width="40" height="20" as="geometry"/>
                </mxCell>
                <mxCell id="QqKcmoJ2T04hJHOFYL-L-8" value="Catalog Item 1" style="rounded=0;whiteSpace=wrap;html=1;fillColor=#60a917;strokeColor=#2D7600;fontColor=#ffffff;" vertex="1" parent="1">
                    <mxGeometry x="380" y="180" width="110" height="40" as="geometry"/>
                </mxCell>
                <mxCell id="QqKcmoJ2T04hJHOFYL-L-9" value="Catalog Item 2" style="rounded=0;whiteSpace=wrap;html=1;fillColor=#60a917;strokeColor=#2D7600;fontColor=#ffffff;" vertex="1" parent="1">
                    <mxGeometry x="380" y="240" width="110" height="40" as="geometry"/>
                </mxCell>
                <mxCell id="QqKcmoJ2T04hJHOFYL-L-10" value="Catalog Item 3" style="rounded=0;whiteSpace=wrap;html=1;fillColor=#60a917;strokeColor=#2D7600;fontColor=#ffffff;" vertex="1" parent="1">
                    <mxGeometry x="380" y="300" width="110" height="40" as="geometry"/>
                </mxCell>
                <mxCell id="QqKcmoJ2T04hJHOFYL-L-11" value="+" style="rounded=0;whiteSpace=wrap;html=1;fillColor=#60a917;strokeColor=#2D7600;fontColor=#ffffff;" vertex="1" parent="1">
                    <mxGeometry x="500" y="185" width="30" height="30" as="geometry"/>
                </mxCell>
                <mxCell id="QqKcmoJ2T04hJHOFYL-L-13" value="-" style="rounded=0;whiteSpace=wrap;html=1;fillColor=#a20025;strokeColor=#6F0000;fontColor=#ffffff;" vertex="1" parent="1">
                    <mxGeometry x="540" y="185" width="30" height="30" as="geometry"/>
                </mxCell>
                <mxCell id="kk17gffhvfbufW7QiLIQ-4" value="+" style="rounded=0;whiteSpace=wrap;html=1;fillColor=#60a917;strokeColor=#2D7600;fontColor=#ffffff;" vertex="1" parent="1">
                    <mxGeometry x="500" y="245" width="30" height="30" as="geometry"/>
                </mxCell>
                <mxCell id="kk17gffhvfbufW7QiLIQ-5" value="-" style="rounded=0;whiteSpace=wrap;html=1;fillColor=#a20025;strokeColor=#6F0000;fontColor=#ffffff;" vertex="1" parent="1">
                    <mxGeometry x="540" y="245" width="30" height="30" as="geometry"/>
                </mxCell>
                <mxCell id="kk17gffhvfbufW7QiLIQ-6" value="+" style="rounded=0;whiteSpace=wrap;html=1;fillColor=#60a917;strokeColor=#2D7600;fontColor=#ffffff;" vertex="1" parent="1">
                    <mxGeometry x="500" y="305" width="30" height="30" as="geometry"/>
                </mxCell>
                <mxCell id="kk17gffhvfbufW7QiLIQ-7" value="-" style="rounded=0;whiteSpace=wrap;html=1;fillColor=#a20025;strokeColor=#6F0000;fontColor=#ffffff;" vertex="1" parent="1">
                    <mxGeometry x="540" y="305" width="30" height="30" as="geometry"/>
                </mxCell>
                <mxCell id="QqKcmoJ2T04hJHOFYL-L-16" value="Order Total" style="rounded=0;whiteSpace=wrap;html=1;fillColor=#60a917;strokeColor=#2D7600;fontColor=#ffffff;" vertex="1" parent="1">
                    <mxGeometry x="380" y="360" width="110" height="30" as="geometry"/>
                </mxCell>
                <mxCell id="QqKcmoJ2T04hJHOFYL-L-17" value="Total$" style="rounded=0;whiteSpace=wrap;html=1;fillColor=#60a917;strokeColor=#2D7600;fontColor=#ffffff;" vertex="1" parent="1">
                    <mxGeometry x="500" y="360" width="70" height="30" as="geometry"/>
                </mxCell>
                <mxCell id="QqKcmoJ2T04hJHOFYL-L-18" value="Order Now" style="rounded=0;whiteSpace=wrap;html=1;fillColor=#60a917;strokeColor=#2D7600;fontColor=#ffffff;" vertex="1" parent="1">
                    <mxGeometry x="420" y="410" width="110" height="40" as="geometry"/>
                </mxCell>
                <mxCell id="QqKcmoJ2T04hJHOFYL-L-19" value="Order Status&lt;br&gt;&lt;br&gt;&lt;br&gt;&lt;br&gt;&lt;br&gt;&lt;br&gt;&lt;br&gt;&lt;br&gt;&lt;br&gt;&lt;br&gt;&lt;br&gt;&lt;br&gt;&lt;br&gt;&lt;br&gt;&lt;br&gt;&lt;br&gt;&lt;br&gt;&lt;br&gt;&lt;br&gt;&lt;br&gt;&lt;br&gt;&lt;br&gt;" style="rounded=0;whiteSpace=wrap;html=1;" vertex="1" parent="1">
                    <mxGeometry x="650" y="90" width="230" height="390" as="geometry"/>
                </mxCell>
                <mxCell id="QqKcmoJ2T04hJHOFYL-L-20" value="Order Results" style="text;html=1;strokeColor=none;fillColor=none;align=center;verticalAlign=middle;whiteSpace=wrap;rounded=0;" vertex="1" parent="1">
                    <mxGeometry x="745" y="60" width="40" height="20" as="geometry"/>
                </mxCell>
                <mxCell id="QqKcmoJ2T04hJHOFYL-L-33" value="Estimated Wait" style="rounded=0;whiteSpace=wrap;html=1;fillColor=#60a917;strokeColor=#2D7600;fontColor=#ffffff;" vertex="1" parent="1">
                    <mxGeometry x="670" y="180" width="110" height="30" as="geometry"/>
                </mxCell>
                <mxCell id="QqKcmoJ2T04hJHOFYL-L-34" value="Time" style="rounded=0;whiteSpace=wrap;html=1;fillColor=#60a917;strokeColor=#2D7600;fontColor=#ffffff;" vertex="1" parent="1">
                    <mxGeometry x="790" y="180" width="70" height="30" as="geometry"/>
                </mxCell>
                <mxCell id="QqKcmoJ2T04hJHOFYL-L-35" value="Leave Time" style="rounded=0;whiteSpace=wrap;html=1;fillColor=#60a917;strokeColor=#2D7600;fontColor=#ffffff;" vertex="1" parent="1">
                    <mxGeometry x="670" y="235" width="110" height="30" as="geometry"/>
                </mxCell>
                <mxCell id="QqKcmoJ2T04hJHOFYL-L-36" value="Time" style="rounded=0;whiteSpace=wrap;html=1;fillColor=#60a917;strokeColor=#2D7600;fontColor=#ffffff;" vertex="1" parent="1">
                    <mxGeometry x="790" y="235" width="70" height="30" as="geometry"/>
                </mxCell>
                <mxCell id="QqKcmoJ2T04hJHOFYL-L-37" value="Order status: waiting, being prepared, ready" style="rounded=0;whiteSpace=wrap;html=1;fillColor=#60a917;strokeColor=#2D7600;fontColor=#ffffff;" vertex="1" parent="1">
                    <mxGeometry x="670" y="290" width="190" height="40" as="geometry"/>
                </mxCell>
                <mxCell id="QqKcmoJ2T04hJHOFYL-L-39" value="Your order is complete!!!!" style="rounded=0;whiteSpace=wrap;html=1;" vertex="1" parent="1">
                    <mxGeometry x="930" y="90" width="230" height="390" as="geometry"/>
                </mxCell>
                <mxCell id="QqKcmoJ2T04hJHOFYL-L-40" value="Order Complete" style="text;html=1;strokeColor=none;fillColor=none;align=center;verticalAlign=middle;whiteSpace=wrap;rounded=0;" vertex="1" parent="1">
                    <mxGeometry x="1025" y="60" width="40" height="20" as="geometry"/>
                </mxCell>
                <mxCell id="QqKcmoJ2T04hJHOFYL-L-46" value="Order Total" style="rounded=0;whiteSpace=wrap;html=1;fillColor=#60a917;strokeColor=#2D7600;fontColor=#ffffff;" vertex="1" parent="1">
                    <mxGeometry x="950" y="180" width="110" height="30" as="geometry"/>
                </mxCell>
                <mxCell id="QqKcmoJ2T04hJHOFYL-L-47" value="Total$" style="rounded=0;whiteSpace=wrap;html=1;fillColor=#60a917;strokeColor=#2D7600;fontColor=#ffffff;" vertex="1" parent="1">
                    <mxGeometry x="1070" y="180" width="70" height="30" as="geometry"/>
                </mxCell>
                <mxCell id="kk17gffhvfbufW7QiLIQ-9" value="Start Another Order" style="rounded=0;whiteSpace=wrap;html=1;fillColor=#0050ef;strokeColor=#001DBC;fontColor=#ffffff;" vertex="1" parent="1">
                    <mxGeometry x="985" y="330" width="120" height="60" as="geometry"/>
                </mxCell>
                <mxCell id="QqKcmoJ2T04hJHOFYL-L-80" style="edgeStyle=orthogonalEdgeStyle;rounded=0;orthogonalLoop=1;jettySize=auto;html=1;entryX=0.004;entryY=0.338;entryDx=0;entryDy=0;entryPerimeter=0;" edge="1" parent="1" source="QqKcmoJ2T04hJHOFYL-L-48" target="QqKcmoJ2T04hJHOFYL-L-56">
                    <mxGeometry relative="1" as="geometry">
                        <Array as="points">
                            <mxPoint x="361" y="722"/>
                            <mxPoint x="361" y="722"/>
                        </Array>
                    </mxGeometry>
                </mxCell>
                <mxCell id="QqKcmoJ2T04hJHOFYL-L-48" value="&lt;br&gt;&lt;br&gt;&lt;br&gt;&lt;br&gt;&lt;br&gt;" style="rounded=0;whiteSpace=wrap;html=1;" vertex="1" parent="1">
                    <mxGeometry x="80" y="590" width="230" height="480" as="geometry"/>
                </mxCell>
                <mxCell id="QqKcmoJ2T04hJHOFYL-L-49" value="Fulfillment Screen" style="text;html=1;strokeColor=none;fillColor=none;align=center;verticalAlign=middle;whiteSpace=wrap;rounded=0;" vertex="1" parent="1">
                    <mxGeometry x="175" y="560" width="40" height="20" as="geometry"/>
                </mxCell>
                <mxCell id="QqKcmoJ2T04hJHOFYL-L-50" value="Finish" style="rounded=0;whiteSpace=wrap;html=1;strokeColor=#B09500;fillColor=#e3c800;fontColor=#ffffff;" vertex="1" parent="1">
                    <mxGeometry x="205" y="830" width="95" height="30" as="geometry"/>
                </mxCell>
                <mxCell id="kk17gffhvfbufW7QiLIQ-10" value="Customer Flow" style="rounded=0;whiteSpace=wrap;html=1;" vertex="1" parent="1">
                    <mxGeometry x="-240" y="220" width="120" height="60" as="geometry"/>
                </mxCell>
                <mxCell id="kk17gffhvfbufW7QiLIQ-11" value="Order Fulfillment Flow" style="rounded=0;whiteSpace=wrap;html=1;" vertex="1" parent="1">
                    <mxGeometry x="-240" y="730" width="120" height="60" as="geometry"/>
                </mxCell>
                <mxCell id="QqKcmoJ2T04hJHOFYL-L-81" style="edgeStyle=orthogonalEdgeStyle;rounded=0;orthogonalLoop=1;jettySize=auto;html=1;entryX=1.004;entryY=0.626;entryDx=0;entryDy=0;entryPerimeter=0;" edge="1" parent="1" source="QqKcmoJ2T04hJHOFYL-L-56" target="QqKcmoJ2T04hJHOFYL-L-48">
                    <mxGeometry relative="1" as="geometry">
                        <Array as="points">
                            <mxPoint x="340" y="834"/>
                            <mxPoint x="340" y="834"/>
                        </Array>
                    </mxGeometry>
                </mxCell>
                <mxCell id="QqKcmoJ2T04hJHOFYL-L-56" value="Finished [Order Name]&lt;br&gt;&lt;br&gt;Order Total: $&lt;br&gt;&lt;br&gt;&lt;br&gt;&lt;br&gt;&lt;br&gt;&lt;br&gt;&lt;br&gt;&lt;br&gt;&lt;br&gt;&lt;br&gt;&lt;br&gt;&lt;br&gt;" style="rounded=0;whiteSpace=wrap;html=1;" vertex="1" parent="1">
                    <mxGeometry x="360" y="590" width="230" height="390" as="geometry"/>
                </mxCell>
                <mxCell id="QqKcmoJ2T04hJHOFYL-L-57" value="Fulfillment Screen" style="text;html=1;strokeColor=none;fillColor=none;align=center;verticalAlign=middle;whiteSpace=wrap;rounded=0;" vertex="1" parent="1">
                    <mxGeometry x="455" y="560" width="40" height="20" as="geometry"/>
                </mxCell>
                <mxCell id="kk17gffhvfbufW7QiLIQ-12" value="App Name" style="text;html=1;strokeColor=none;fillColor=none;align=center;verticalAlign=middle;whiteSpace=wrap;rounded=0;" vertex="1" parent="1">
                    <mxGeometry x="125" y="600" width="140" height="20" as="geometry"/>
                </mxCell>
                <mxCell id="QqKcmoJ2T04hJHOFYL-L-61" value="Restaurant Name" style="text;html=1;strokeColor=none;fillColor=none;align=center;verticalAlign=middle;whiteSpace=wrap;rounded=0;" vertex="1" parent="1">
                    <mxGeometry x="175" y="640" width="40" height="20" as="geometry"/>
                </mxCell>
                <mxCell id="QqKcmoJ2T04hJHOFYL-L-62" value="7.4 mi away&amp;nbsp;" style="rounded=0;whiteSpace=wrap;html=1;fillColor=#60a917;strokeColor=#2D7600;fontColor=#ffffff;" vertex="1" parent="1">
                    <mxGeometry x="90" y="830" width="50" height="30" as="geometry"/>
                </mxCell>
                <mxCell id="kk17gffhvfbufW7QiLIQ-13" value="Your order is Fulfilled!!!!" style="rounded=0;whiteSpace=wrap;html=1;" vertex="1" parent="1">
                    <mxGeometry x="360" y="590" width="230" height="390" as="geometry"/>
                </mxCell>
                <mxCell id="kk17gffhvfbufW7QiLIQ-14" value="Order Total" style="rounded=0;whiteSpace=wrap;html=1;fillColor=#60a917;strokeColor=#2D7600;fontColor=#ffffff;" vertex="1" parent="1">
                    <mxGeometry x="380" y="680" width="110" height="30" as="geometry"/>
                </mxCell>
                <mxCell id="kk17gffhvfbufW7QiLIQ-15" value="Total$" style="rounded=0;whiteSpace=wrap;html=1;fillColor=#60a917;strokeColor=#2D7600;fontColor=#ffffff;" vertex="1" parent="1">
                    <mxGeometry x="500" y="680" width="70" height="30" as="geometry"/>
                </mxCell>
                <mxCell id="kk17gffhvfbufW7QiLIQ-16" value="Back" style="rounded=0;whiteSpace=wrap;html=1;fillColor=#0050ef;strokeColor=#001DBC;fontColor=#ffffff;" vertex="1" parent="1">
                    <mxGeometry x="415" y="830" width="120" height="60" as="geometry"/>
                </mxCell>
                <mxCell id="QqKcmoJ2T04hJHOFYL-L-83" value="Order 2" style="rounded=0;whiteSpace=wrap;html=1;fillColor=#60a917;strokeColor=#2D7600;fontColor=#ffffff;" vertex="1" parent="1">
                    <mxGeometry x="90" y="790" width="210" height="30" as="geometry"/>
                </mxCell>
                <mxCell id="QqKcmoJ2T04hJHOFYL-L-84" value="Start" style="rounded=0;whiteSpace=wrap;html=1;strokeColor=#001DBC;fillColor=#0050ef;fontColor=#ffffff;" vertex="1" parent="1">
                    <mxGeometry x="205" y="925" width="95" height="30" as="geometry"/>
                </mxCell>
                <mxCell id="QqKcmoJ2T04hJHOFYL-L-86" value="Order 3" style="rounded=0;whiteSpace=wrap;html=1;fillColor=#60a917;strokeColor=#2D7600;fontColor=#ffffff;" vertex="1" parent="1">
                    <mxGeometry x="90" y="890" width="210" height="30" as="geometry"/>
                </mxCell>
                <mxCell id="kk17gffhvfbufW7QiLIQ-18" value="10:54" style="rounded=0;whiteSpace=wrap;html=1;fillColor=#60a917;strokeColor=#2D7600;fontColor=#ffffff;" vertex="1" parent="1">
                    <mxGeometry x="145" y="830" width="50" height="30" as="geometry"/>
                </mxCell>
                <mxCell id="QqKcmoJ2T04hJHOFYL-L-87" value="Finish" style="rounded=0;whiteSpace=wrap;html=1;strokeColor=#C73500;fillColor=#fa6800;fontColor=#ffffff;" vertex="1" parent="1">
                    <mxGeometry x="205" y="730" width="95" height="30" as="geometry"/>
                </mxCell>
                <mxCell id="QqKcmoJ2T04hJHOFYL-L-88" value="Arrived" style="rounded=0;whiteSpace=wrap;html=1;fillColor=#60a917;strokeColor=#2D7600;fontColor=#ffffff;" vertex="1" parent="1">
                    <mxGeometry x="90" y="730" width="100" height="30" as="geometry"/>
                </mxCell>
                <mxCell id="QqKcmoJ2T04hJHOFYL-L-89" value="Order 1" style="rounded=0;whiteSpace=wrap;html=1;fillColor=#60a917;strokeColor=#2D7600;fontColor=#ffffff;" vertex="1" parent="1">
                    <mxGeometry x="90" y="690" width="210" height="30" as="geometry"/>
                </mxCell>
                <mxCell id="QqKcmoJ2T04hJHOFYL-L-91" value="4 mi away&amp;nbsp;" style="rounded=0;whiteSpace=wrap;html=1;fillColor=#60a917;strokeColor=#2D7600;fontColor=#ffffff;" vertex="1" parent="1">
                    <mxGeometry x="90" y="925" width="50" height="30" as="geometry"/>
                </mxCell>
                <mxCell id="QqKcmoJ2T04hJHOFYL-L-92" value="4:59" style="rounded=0;whiteSpace=wrap;html=1;fillColor=#60a917;strokeColor=#2D7600;fontColor=#ffffff;" vertex="1" parent="1">
                    <mxGeometry x="145" y="925" width="50" height="30" as="geometry"/>
                </mxCell>
                <mxCell id="QqKcmoJ2T04hJHOFYL-L-93" value="Start" style="rounded=0;whiteSpace=wrap;html=1;strokeColor=#3700CC;fillColor=#6a00ff;fontColor=#ffffff;" vertex="1" parent="1">
                    <mxGeometry x="205" y="1015" width="95" height="30" as="geometry"/>
                </mxCell>
                <mxCell id="QqKcmoJ2T04hJHOFYL-L-94" value="Order 4 - Time to make: 5 minute" style="rounded=0;whiteSpace=wrap;html=1;fillColor=#60a917;strokeColor=#2D7600;fontColor=#ffffff;" vertex="1" parent="1">
                    <mxGeometry x="90" y="980" width="210" height="30" as="geometry"/>
                </mxCell>
                <mxCell id="QqKcmoJ2T04hJHOFYL-L-95" value="7.4 mi away&amp;nbsp;" style="rounded=0;whiteSpace=wrap;html=1;fillColor=#60a917;strokeColor=#2D7600;fontColor=#ffffff;" vertex="1" parent="1">
                    <mxGeometry x="90" y="1015" width="50" height="30" as="geometry"/>
                </mxCell>
                <mxCell id="QqKcmoJ2T04hJHOFYL-L-96" value="10:54" style="rounded=0;whiteSpace=wrap;html=1;fillColor=#60a917;strokeColor=#2D7600;fontColor=#ffffff;" vertex="1" parent="1">
                    <mxGeometry x="145" y="1015" width="50" height="30" as="geometry"/>
                </mxCell>
            </root>
        </mxGraphModel>
    </diagram>
</mxfile>